<svg width="75" height="65" viewBox="0 0 75 65" fill="none" xmlns="http://www.w3.org/2000/svg">
<path fill-rule="evenodd" clip-rule="evenodd" d="M33.2986 6.92789L37.2985 0L41.2983 6.92789L70.5969 57.6747L74.5968 64.6025H66.5971H7.9998H0.000165939L3.99998 57.6747L4.03332 57.6169H12.033L11.9996 57.6747H62.5973L37.2985 13.8558L17.6327 47.9179H9.63495L5.18445 55.6231L33.2986 6.92789ZM17.6327 47.9179L12.033 57.6169H12.0401L17.6331 47.9179H17.6327ZM5.18445 55.6231L4.03332 57.6169H4.03283L5.18445 55.6231Z" fill="#D9D9D9"/>
<path opacity="0.8" d="M9.87738 51.3753V54.8808H9.10007V51.9189H8.63775C8.53953 51.9189 8.46671 51.9426 8.41929 51.99C8.37188 52.0374 8.34478 52.1136 8.33801 52.2186C8.31769 52.4727 8.29398 52.703 8.26688 52.9096C8.23979 53.1162 8.20592 53.3076 8.16527 53.4837C8.12802 53.6564 8.0806 53.8207 8.02302 53.9765C7.96883 54.1289 7.90278 54.2796 7.82488 54.4286C7.74698 54.5743 7.65553 54.725 7.55054 54.8808H6.89516C7.05773 54.5861 7.18644 54.2864 7.28127 53.9816C7.37611 53.6733 7.44893 53.3617 7.49973 53.0468C7.55054 52.7284 7.58779 52.41 7.6115 52.0916C7.62844 51.8783 7.70634 51.7055 7.8452 51.5734C7.98746 51.4413 8.17374 51.3753 8.40405 51.3753H9.87738ZM7.39812 54.8452L7.33716 55.6479H6.77831V54.8452H7.39812ZM10.3346 54.3372V54.8808H6.77831V54.3372H10.3346ZM10.3346 54.8452V55.6479H9.78086L9.71989 54.8452H10.3346ZM11.5249 51.36C11.7112 51.36 11.9008 51.3617 12.0939 51.3651C12.2869 51.3651 12.4766 51.3685 12.6629 51.3753C12.8526 51.3821 13.0287 51.3939 13.1913 51.4109L13.1557 51.9748H11.8094C11.7247 51.9748 11.6604 51.9968 11.6163 52.0408C11.5757 52.0849 11.5554 52.1492 11.5554 52.2339V54.0222C11.5554 54.1069 11.5757 54.1712 11.6163 54.2153C11.6604 54.2593 11.7247 54.2813 11.8094 54.2813H13.1557L13.1913 54.8452C13.0287 54.8588 12.8526 54.8706 12.6629 54.8808C12.4766 54.8876 12.2869 54.891 12.0939 54.891C11.9008 54.8943 11.7112 54.896 11.5249 54.896C11.3013 54.896 11.1201 54.8317 10.9813 54.703C10.8458 54.5709 10.7781 54.3998 10.7781 54.1899V52.0662C10.7781 51.8528 10.8458 51.6818 10.9813 51.5531C11.1201 51.4244 11.3013 51.36 11.5249 51.36ZM10.8644 52.7826H12.9626V53.3313H10.8644V52.7826ZM17.3425 51.3753C17.5254 51.3753 17.6202 51.4701 17.627 51.6598L17.7591 54.8808H17.0428L16.9259 51.9748H16.8345L16.2705 54.1594C16.2401 54.3219 16.1384 54.4032 15.9657 54.4032H15.478C15.3052 54.4032 15.2003 54.3219 15.163 54.1594L14.5991 51.9748H14.5127L14.406 54.8808H13.6846L13.8167 51.6598C13.8235 51.4701 13.92 51.3753 14.1063 51.3753H14.8328C14.9987 51.3753 15.1003 51.4583 15.1376 51.6242L15.5898 53.3871C15.6101 53.4684 15.627 53.5514 15.6406 53.6361C15.6541 53.7174 15.6693 53.8004 15.6863 53.885H15.7523C15.7693 53.8004 15.7845 53.7174 15.7981 53.6361C15.815 53.5514 15.8319 53.4667 15.8489 53.3821L16.2959 51.6242C16.3298 51.4583 16.4314 51.3753 16.6008 51.3753H17.3425ZM19.8063 51.3042C20.084 51.3042 20.3194 51.3346 20.5124 51.3956C20.7055 51.4532 20.8596 51.5514 20.9748 51.6903C21.0933 51.8258 21.1797 52.012 21.2339 52.2491C21.288 52.4828 21.3151 52.7758 21.3151 53.128C21.3151 53.4803 21.288 53.775 21.2339 54.012C21.1797 54.2457 21.0933 54.432 20.9748 54.5709C20.8596 54.7064 20.7055 54.8046 20.5124 54.8656C20.3194 54.9231 20.084 54.9519 19.8063 54.9519C19.5285 54.9519 19.2931 54.9231 19.1001 54.8656C18.907 54.8046 18.7512 54.7064 18.6327 54.5709C18.5141 54.432 18.4278 54.2457 18.3736 54.012C18.3194 53.775 18.2923 53.4803 18.2923 53.128C18.2923 52.7758 18.3194 52.4828 18.3736 52.2491C18.4278 52.012 18.5141 51.8258 18.6327 51.6903C18.7512 51.5514 18.907 51.4532 19.1001 51.3956C19.2931 51.3346 19.5285 51.3042 19.8063 51.3042ZM19.8063 51.9189C19.6267 51.9189 19.4862 51.9545 19.3846 52.0256C19.2864 52.0967 19.2152 52.2203 19.1712 52.3965C19.1306 52.5692 19.1102 52.8131 19.1102 53.128C19.1102 53.4396 19.1306 53.6835 19.1712 53.8596C19.2152 54.0358 19.2864 54.1594 19.3846 54.2305C19.4862 54.3016 19.6267 54.3372 19.8063 54.3372C19.9824 54.3372 20.1195 54.3016 20.2178 54.2305C20.3194 54.1594 20.3905 54.0358 20.4311 53.8596C20.4752 53.6835 20.4972 53.4396 20.4972 53.128C20.4972 52.8131 20.4752 52.5692 20.4311 52.3965C20.3905 52.2203 20.3194 52.0967 20.2178 52.0256C20.1195 51.9545 19.9824 51.9189 19.8063 51.9189ZM22.6994 51.3753V54.8808H21.9221V51.3753H22.6994ZM24 52.7216V53.3059H22.6588V52.7216H24ZM24.7215 51.3753V54.8808H23.9442V51.3753H24.7215ZM27.0042 51.3753V54.8808H26.2269V51.3753H27.0042ZM28.0609 51.3753V51.9849H25.1752V51.3753H28.0609ZM30.1722 51.3753C30.2365 51.3753 30.2924 51.3939 30.3398 51.4312C30.3906 51.4684 30.4245 51.5175 30.4414 51.5785L31.4575 54.8808H30.665L29.9486 52.305C29.9351 52.2474 29.9215 52.1899 29.908 52.1323C29.8944 52.0713 29.8826 52.0137 29.8724 51.9595H29.7352C29.7251 52.0137 29.7132 52.0713 29.6997 52.1323C29.6895 52.1899 29.676 52.2474 29.659 52.305L28.9427 54.8808H28.1451L29.1662 51.5785C29.1832 51.5175 29.2153 51.4684 29.2628 51.4312C29.3136 51.3939 29.3711 51.3753 29.4355 51.3753H30.1722ZM30.7107 53.3719V53.9562H28.8919V53.3719H30.7107ZM36.0366 51.3753C35.9655 51.6056 35.9028 51.8071 35.8486 51.9799C35.7945 52.1526 35.7403 52.3033 35.6861 52.432C35.6353 52.5573 35.576 52.6623 35.5083 52.747C35.4439 52.8317 35.366 52.8977 35.2746 52.9451C35.1831 52.9892 35.0713 53.0197 34.9392 53.0366V53.0671C35.0781 53.084 35.195 53.1162 35.2898 53.1636C35.388 53.2076 35.4727 53.2737 35.5438 53.3617C35.6149 53.4464 35.6793 53.5582 35.7369 53.6971C35.7978 53.8325 35.8588 53.9985 35.9198 54.1949C35.9807 54.388 36.0519 54.6166 36.1332 54.8808H35.3203C35.2221 54.5794 35.1391 54.3287 35.0713 54.1289C35.0036 53.9291 34.9392 53.7716 34.8783 53.6564C34.8207 53.5379 34.7547 53.4532 34.6801 53.4024C34.609 53.3516 34.5193 53.3262 34.4109 53.3262L34.4058 52.7877C34.5108 52.7877 34.5989 52.7606 34.67 52.7064C34.7411 52.6488 34.8055 52.5641 34.863 52.4523C34.9206 52.3372 34.9799 52.1915 35.0409 52.0154C35.1018 51.8359 35.1713 51.6225 35.2492 51.3753H36.0366ZM32.4447 51.3753C32.5226 51.6225 32.5904 51.8359 32.648 52.0154C32.7089 52.1915 32.7682 52.3372 32.8258 52.4523C32.8834 52.5641 32.9477 52.6488 33.0188 52.7064C33.0933 52.7606 33.1814 52.7877 33.283 52.7877V53.3262C33.1746 53.3262 33.0832 53.3516 33.0087 53.4024C32.9375 53.4532 32.8715 53.5379 32.8105 53.6564C32.753 53.7716 32.6903 53.9291 32.6226 54.1289C32.5548 54.3287 32.4718 54.5794 32.3736 54.8808H31.5607C31.642 54.6166 31.7132 54.388 31.7741 54.1949C31.8351 53.9985 31.8944 53.8325 31.9519 53.6971C32.0129 53.5582 32.079 53.4464 32.1501 53.3617C32.2212 53.2737 32.3042 53.2076 32.399 53.1636C32.4939 53.1162 32.6107 53.084 32.7496 53.0671V53.0366C32.6175 53.0197 32.5057 52.9892 32.4143 52.9451C32.3228 52.8977 32.2449 52.8317 32.1806 52.747C32.1162 52.6623 32.0569 52.5573 32.0027 52.432C31.9519 52.3033 31.8994 52.1526 31.8453 51.9799C31.7911 51.8071 31.7284 51.6056 31.6573 51.3753H32.4447ZM33.6539 52.7877V53.3262H33.1357V52.7877H33.6539ZM34.2229 51.3753V52.366C34.2229 52.4811 34.2144 52.5963 34.1975 52.7114C34.1806 52.8232 34.1518 52.9333 34.1111 53.0417C34.1416 53.1467 34.167 53.2551 34.1873 53.3668C34.211 53.4752 34.2229 53.5768 34.2229 53.6717V54.8808H33.4812V53.6717C33.4812 53.5768 33.493 53.4752 33.5167 53.3668C33.5404 53.2551 33.5658 53.1467 33.5929 53.0417C33.5557 52.9333 33.5269 52.8232 33.5066 52.7114C33.4896 52.5963 33.4812 52.4811 33.4812 52.366V51.3753H34.2229ZM34.5633 52.7877V53.3262H34.0552V52.7877H34.5633ZM39.0305 51.3245C39.3387 51.3245 39.5877 51.3567 39.7773 51.421C39.9704 51.482 40.111 51.5887 40.199 51.7411C40.2905 51.8901 40.3362 52.0984 40.3362 52.366C40.3362 52.5285 40.3142 52.6725 40.2701 52.7978C40.2295 52.9197 40.1601 53.018 40.0618 53.0925C39.9636 53.167 39.8298 53.2144 39.6605 53.2347V53.2601C39.7215 53.2703 39.7841 53.294 39.8485 53.3313C39.9162 53.3685 39.9789 53.4244 40.0364 53.4989C40.094 53.57 40.1364 53.6666 40.1635 53.7885L40.4683 54.8808H39.6503L39.3811 53.8139C39.3506 53.6987 39.3049 53.6192 39.2439 53.5751C39.1863 53.5311 39.105 53.5091 39 53.5091C38.7697 53.5091 38.575 53.5091 38.4158 53.5091C38.26 53.5057 38.1279 53.5023 38.0195 53.4989C37.9145 53.4955 37.8197 53.4921 37.735 53.4888L37.7502 52.9248H39.0153C39.1508 52.9248 39.2574 52.9113 39.3353 52.8842C39.4166 52.8537 39.4725 52.8012 39.503 52.7267C39.5369 52.6522 39.5538 52.5489 39.5538 52.4168C39.5538 52.2813 39.5369 52.178 39.503 52.1069C39.4725 52.0324 39.4166 51.9816 39.3353 51.9545C39.2574 51.924 39.1508 51.9087 39.0153 51.9087C38.6969 51.9087 38.4276 51.9104 38.2075 51.9138C37.9873 51.9172 37.8366 51.9223 37.7553 51.9291L37.6791 51.3753C37.8214 51.3584 37.9552 51.3465 38.0805 51.3397C38.2058 51.333 38.343 51.3296 38.492 51.3296C38.641 51.3262 38.8205 51.3245 39.0305 51.3245ZM38.4463 51.3753V54.8808H37.6791V51.3753H38.4463ZM42.3508 51.3042C42.6285 51.3042 42.8639 51.3346 43.0569 51.3956C43.25 51.4532 43.4041 51.5514 43.5193 51.6903C43.6378 51.8258 43.7242 52.012 43.7784 52.2491C43.8326 52.4828 43.8596 52.7758 43.8596 53.128C43.8596 53.4803 43.8326 53.775 43.7784 54.012C43.7242 54.2457 43.6378 54.432 43.5193 54.5709C43.4041 54.7064 43.25 54.8046 43.0569 54.8656C42.8639 54.9231 42.6285 54.9519 42.3508 54.9519C42.073 54.9519 41.8376 54.9231 41.6446 54.8656C41.4515 54.8046 41.2957 54.7064 41.1772 54.5709C41.0586 54.432 40.9723 54.2457 40.9181 54.012C40.8639 53.775 40.8368 53.4803 40.8368 53.128C40.8368 52.7758 40.8639 52.4828 40.9181 52.2491C40.9723 52.012 41.0586 51.8258 41.1772 51.6903C41.2957 51.5514 41.4515 51.4532 41.6446 51.3956C41.8376 51.3346 42.073 51.3042 42.3508 51.3042ZM42.3508 51.9189C42.1712 51.9189 42.0307 51.9545 41.9291 52.0256C41.8309 52.0967 41.7597 52.2203 41.7157 52.3965C41.6751 52.5692 41.6547 52.8131 41.6547 53.128C41.6547 53.4396 41.6751 53.6835 41.7157 53.8596C41.7597 54.0358 41.8309 54.1594 41.9291 54.2305C42.0307 54.3016 42.1712 54.3372 42.3508 54.3372C42.5269 54.3372 42.664 54.3016 42.7623 54.2305C42.8639 54.1594 42.935 54.0358 42.9756 53.8596C43.0197 53.6835 43.0417 53.4396 43.0417 53.128C43.0417 52.8131 43.0197 52.5692 42.9756 52.3965C42.935 52.2203 42.8639 52.0967 42.7623 52.0256C42.664 51.9545 42.5269 51.9189 42.3508 51.9189ZM45.6097 51.3092C45.7825 51.3092 45.9705 51.3194 46.1737 51.3397C46.3769 51.3567 46.575 51.3939 46.7681 51.4515L46.7173 51.9646C46.5683 51.9612 46.3938 51.9578 46.194 51.9545C45.9942 51.9511 45.7977 51.9494 45.6047 51.9494C45.5098 51.9494 45.4285 51.9528 45.3608 51.9595C45.2964 51.9629 45.2439 51.9765 45.2033 52.0002C45.1627 52.0205 45.1339 52.0527 45.1169 52.0967C45.1 52.1407 45.0915 52.2017 45.0915 52.2796C45.0915 52.3982 45.1186 52.4845 45.1728 52.5387C45.2304 52.5929 45.3269 52.642 45.4624 52.686L46.1381 52.9045C46.4192 52.9993 46.614 53.128 46.7224 53.2906C46.8307 53.4532 46.8849 53.6666 46.8849 53.9308C46.8849 54.1306 46.8612 54.2965 46.8138 54.4286C46.7664 54.5607 46.6919 54.664 46.5903 54.7385C46.4887 54.8131 46.3549 54.8656 46.1889 54.896C46.0229 54.9299 45.8197 54.9468 45.5793 54.9468C45.4641 54.9468 45.2998 54.9384 45.0865 54.9214C44.8731 54.9079 44.6292 54.8706 44.3549 54.8097L44.4057 54.261C44.6055 54.2644 44.7782 54.2695 44.9239 54.2762C45.0729 54.2796 45.1999 54.283 45.3049 54.2864C45.4099 54.2864 45.5014 54.2864 45.5793 54.2864C45.7147 54.2864 45.8197 54.2779 45.8942 54.261C45.9721 54.244 46.0263 54.2102 46.0568 54.1594C46.0873 54.1086 46.1025 54.0358 46.1025 53.9409C46.1025 53.8596 46.0907 53.7953 46.067 53.7479C46.0467 53.6971 46.0111 53.6581 45.9603 53.631C45.9129 53.6005 45.8468 53.5734 45.7622 53.5497L45.0509 53.3059C44.7833 53.2076 44.5936 53.0789 44.4819 52.9197C44.3701 52.7606 44.3142 52.5506 44.3142 52.2898C44.3142 52.0866 44.3379 51.9223 44.3854 51.797C44.4362 51.6683 44.5124 51.5683 44.614 51.4972C44.719 51.4261 44.8528 51.377 45.0153 51.3499C45.1813 51.3228 45.3794 51.3092 45.6097 51.3092ZM48.993 51.3753V54.8808H48.2157V51.3753H48.993ZM50.0497 51.3753V51.9849H47.164V51.3753H50.0497ZM51.8369 51.3042C52.1146 51.3042 52.35 51.3346 52.5431 51.3956C52.7361 51.4532 52.8903 51.5514 53.0054 51.6903C53.124 51.8258 53.2103 52.012 53.2645 52.2491C53.3187 52.4828 53.3458 52.7758 53.3458 53.128C53.3458 53.4803 53.3187 53.775 53.2645 54.012C53.2103 54.2457 53.124 54.432 53.0054 54.5709C52.8903 54.7064 52.7361 54.8046 52.5431 54.8656C52.35 54.9231 52.1146 54.9519 51.8369 54.9519C51.5592 54.9519 51.3238 54.9231 51.1307 54.8656C50.9377 54.8046 50.7819 54.7064 50.6633 54.5709C50.5448 54.432 50.4584 54.2457 50.4042 54.012C50.35 53.775 50.3229 53.4803 50.3229 53.128C50.3229 52.7758 50.35 52.4828 50.4042 52.2491C50.4584 52.012 50.5448 51.8258 50.6633 51.6903C50.7819 51.5514 50.9377 51.4532 51.1307 51.3956C51.3238 51.3346 51.5592 51.3042 51.8369 51.3042ZM51.8369 51.9189C51.6574 51.9189 51.5168 51.9545 51.4152 52.0256C51.317 52.0967 51.2459 52.2203 51.2018 52.3965C51.1612 52.5692 51.1409 52.8131 51.1409 53.128C51.1409 53.4396 51.1612 53.6835 51.2018 53.8596C51.2459 54.0358 51.317 54.1594 51.4152 54.2305C51.5168 54.3016 51.6574 54.3372 51.8369 54.3372C52.013 54.3372 52.1502 54.3016 52.2484 54.2305C52.35 54.1594 52.4212 54.0358 52.4618 53.8596C52.5058 53.6835 52.5278 53.4396 52.5278 53.128C52.5278 52.8131 52.5058 52.5692 52.4618 52.3965C52.4212 52.2203 52.35 52.0967 52.2484 52.0256C52.1502 51.9545 52.013 51.9189 51.8369 51.9189ZM56.7582 51.3753L55.803 54.6674C55.7861 54.7284 55.7522 54.7792 55.7014 54.8198C55.654 54.8605 55.5964 54.8808 55.5287 54.8808H54.8174C54.7463 54.8808 54.6853 54.8605 54.6345 54.8198C54.5871 54.7792 54.5566 54.7284 54.5431 54.6674L53.5829 51.3753H54.3856L55.0257 53.9054C55.0393 53.9697 55.0528 54.0358 55.0664 54.1035C55.0833 54.1678 55.0968 54.2322 55.107 54.2965H55.2391C55.2493 54.2322 55.2611 54.1661 55.2747 54.0984C55.2916 54.0307 55.3085 53.9646 55.3255 53.9003L55.9605 51.3753H56.7582Z" fill="white"/>
</svg>
