<svg xmlns="http://www.w3.org/2000/svg" width="24" height="24" viewBox="0 0 24 24" fill="none">
<rect width="24" height="24" rx="6" fill="url(#paint0_linear_27_62)"/>
<path fill-rule="evenodd" clip-rule="evenodd" d="M18.8392 7.66086C18.9954 7.81713 19.0832 8.02906 19.0832 8.25003C19.0832 8.471 18.9954 8.68292 18.8392 8.83919L10.9225 16.7559C10.7662 16.9121 10.5543 16.9998 10.3333 16.9998C10.1124 16.9998 9.90045 16.9121 9.74418 16.7559L5.99418 13.0059C5.84238 12.8487 5.75839 12.6382 5.76029 12.4197C5.76218 12.2012 5.84983 11.9922 6.00433 11.8377C6.15884 11.6832 6.36785 11.5955 6.58635 11.5936C6.80484 11.5917 7.01535 11.6757 7.17251 11.8275L10.3333 14.9884L17.6608 7.66086C17.8171 7.50463 18.029 7.41687 18.25 7.41687C18.471 7.41687 18.6829 7.50463 18.8392 7.66086Z" fill="white"/>
<defs>
<linearGradient id="paint0_linear_27_62" x1="0.999999" y1="1.33333" x2="21.3333" y2="24" gradientUnits="userSpaceOnUse">
<stop stop-color="#FF8E54"/>
<stop offset="1" stop-color="#FE7027"/>
</linearGradient>
</defs>
</svg>
