<svg width="14" height="24" viewBox="0 0 14 24" fill="none" xmlns="http://www.w3.org/2000/svg">
<path fill-rule="evenodd" clip-rule="evenodd" d="M12.9714 12.9715C13.3011 12.6418 13.4863 12.1945 13.4863 11.7282C13.4863 11.2619 13.3011 10.8147 12.9714 10.4849L3.02337 0.536863C2.86115 0.368904 2.6671 0.234934 2.45255 0.142771C2.238 0.0506071 2.00725 0.00209543 1.77375 6.63963e-05C1.54025 -0.00196264 1.30868 0.042532 1.09257 0.130953C0.876447 0.219374 0.680101 0.349952 0.514987 0.515066C0.349873 0.680181 0.219295 0.876525 0.130874 1.09264C0.0424528 1.30876 -0.00204086 1.54033 -1.23978e-05 1.77383C0.00201702 2.00732 0.0505285 2.23808 0.142692 2.45263C0.234856 2.66718 0.368825 2.86122 0.536783 3.02344L9.24158 11.7282L0.536783 20.433C0.216451 20.7647 0.0391998 21.2089 0.0432062 21.67C0.0472126 22.1311 0.232157 22.5721 0.558205 22.8982C0.884254 23.2242 1.32532 23.4092 1.7864 23.4132C2.24749 23.4172 2.6917 23.2399 3.02337 22.9196L12.9714 12.9715Z" fill="white"/>
</svg>
