<svg width="14" height="24" viewBox="0 0 14 24" fill="none" xmlns="http://www.w3.org/2000/svg">
<path fill-rule="evenodd" clip-rule="evenodd" d="M0.514878 12.9715C0.185202 12.6418 0 12.1945 0 11.7282C0 11.2619 0.185202 10.8147 0.514878 10.4849L10.463 0.536863C10.6252 0.368904 10.8192 0.234934 11.0338 0.142771C11.2483 0.0506071 11.4791 0.00209543 11.7126 6.63963e-05C11.9461 -0.00196264 12.1776 0.042532 12.3938 0.130953C12.6099 0.219374 12.8062 0.349952 12.9713 0.515066C13.1365 0.680181 13.267 0.876525 13.3555 1.09264C13.4439 1.30876 13.4884 1.54033 13.4863 1.77383C13.4843 2.00732 13.4358 2.23808 13.3436 2.45263C13.2515 2.66718 13.1175 2.86122 12.9495 3.02344L4.24475 11.7282L12.9495 20.433C13.2699 20.7647 13.4471 21.2089 13.4431 21.67C13.4391 22.1311 13.2542 22.5721 12.9281 22.8982C12.6021 23.2242 12.161 23.4092 11.6999 23.4132C11.2388 23.4172 10.7946 23.2399 10.463 22.9196L0.514878 12.9715Z" fill="white"/>
</svg>
