<svg width="82" height="14" viewBox="0 0 82 14" fill="none" xmlns="http://www.w3.org/2000/svg">
<g clip-path="url(#clip0_2096_62)">
<path d="M4.8084 4.28162L1.08674 4.82121L1.02082 4.83462C0.921033 4.86111 0.830066 4.91361 0.757206 4.98676C0.684346 5.0599 0.632204 5.15107 0.606105 5.25096C0.580006 5.35085 0.580885 5.45588 0.608652 5.55531C0.636418 5.65475 0.690079 5.74504 0.764152 5.81695L3.46032 8.44137L2.82449 12.1485L2.8169 12.2126C2.81079 12.3158 2.83222 12.4188 2.879 12.511C2.92577 12.6032 2.99621 12.6813 3.0831 12.7373C3.16999 12.7934 3.2702 12.8253 3.37349 12.8299C3.47677 12.8344 3.57941 12.8114 3.6709 12.7633L6.9994 11.0133L10.3203 12.7633L10.3787 12.7901C10.4749 12.828 10.5796 12.8397 10.6818 12.8238C10.7841 12.808 10.8803 12.7652 10.9606 12.6999C11.0409 12.6345 11.1023 12.5491 11.1386 12.4522C11.175 12.3553 11.1849 12.2504 11.1673 12.1485L10.5309 8.44137L13.2282 5.81637L13.2737 5.76679C13.3387 5.68674 13.3813 5.59089 13.3972 5.489C13.4131 5.38712 13.4017 5.28284 13.3642 5.1868C13.3267 5.09075 13.2644 5.00637 13.1836 4.94225C13.1028 4.87813 13.0065 4.83657 12.9045 4.82179L9.18282 4.28162L7.51915 0.909955C7.47101 0.812267 7.39649 0.730005 7.30401 0.672482C7.21154 0.61496 7.10481 0.584473 6.9959 0.584473C6.887 0.584473 6.78027 0.61496 6.68779 0.672482C6.59532 0.730005 6.52079 0.812267 6.47265 0.909955L4.8084 4.28162Z" fill="#FE7027"/>
</g>
<g clip-path="url(#clip1_2096_62)">
<path d="M21.8084 4.28162L18.0867 4.82121L18.0208 4.83462C17.921 4.86111 17.8301 4.91361 17.7572 4.98676C17.6843 5.0599 17.6322 5.15107 17.6061 5.25096C17.58 5.35085 17.5809 5.45588 17.6087 5.55531C17.6364 5.65475 17.6901 5.74504 17.7642 5.81695L20.4603 8.44137L19.8245 12.1485L19.8169 12.2126C19.8108 12.3158 19.8322 12.4188 19.879 12.511C19.9258 12.6032 19.9962 12.6813 20.0831 12.7373C20.17 12.7934 20.2702 12.8253 20.3735 12.8299C20.4768 12.8344 20.5794 12.8114 20.6709 12.7633L23.9994 11.0133L27.3203 12.7633L27.3787 12.7901C27.4749 12.828 27.5796 12.8397 27.6818 12.8238C27.7841 12.808 27.8803 12.7652 27.9606 12.6999C28.0409 12.6345 28.1023 12.5491 28.1386 12.4522C28.175 12.3553 28.1849 12.2504 28.1673 12.1485L27.5309 8.44137L30.2282 5.81637L30.2737 5.76679C30.3387 5.68674 30.3813 5.59089 30.3972 5.489C30.4131 5.38712 30.4017 5.28284 30.3642 5.1868C30.3267 5.09075 30.2644 5.00637 30.1836 4.94225C30.1028 4.87813 30.0065 4.83657 29.9045 4.82179L26.1828 4.28162L24.5192 0.909955C24.471 0.812267 24.3965 0.730005 24.304 0.672482C24.2115 0.61496 24.1048 0.584473 23.9959 0.584473C23.887 0.584473 23.7803 0.61496 23.6878 0.672482C23.5953 0.730005 23.5208 0.812267 23.4727 0.909955L21.8084 4.28162Z" fill="#FE7027"/>
</g>
<g clip-path="url(#clip2_2096_62)">
<path d="M38.8084 4.28162L35.0867 4.82121L35.0208 4.83462C34.921 4.86111 34.8301 4.91361 34.7572 4.98676C34.6843 5.0599 34.6322 5.15107 34.6061 5.25096C34.58 5.35085 34.5809 5.45588 34.6087 5.55531C34.6364 5.65475 34.6901 5.74504 34.7642 5.81696L37.4603 8.44137L36.8245 12.1485L36.8169 12.2126C36.8108 12.3158 36.8322 12.4188 36.879 12.511C36.9258 12.6032 36.9962 12.6813 37.0831 12.7373C37.17 12.7934 37.2702 12.8253 37.3735 12.8299C37.4768 12.8344 37.5794 12.8114 37.6709 12.7633L40.9994 11.0133L44.3203 12.7633L44.3787 12.7901C44.4749 12.828 44.5796 12.8397 44.6818 12.8238C44.7841 12.808 44.8803 12.7652 44.9606 12.6999C45.0409 12.6346 45.1023 12.5491 45.1386 12.4522C45.175 12.3553 45.1849 12.2504 45.1673 12.1485L44.5309 8.44137L47.2282 5.81637L47.2737 5.76679C47.3387 5.68674 47.3813 5.59089 47.3972 5.489C47.4131 5.38712 47.4017 5.28284 47.3642 5.1868C47.3267 5.09075 47.2644 5.00637 47.1836 4.94225C47.1028 4.87814 47.0065 4.83657 46.9045 4.82179L43.1828 4.28162L41.5192 0.909955C41.471 0.812267 41.3965 0.730005 41.304 0.672482C41.2115 0.61496 41.1048 0.584473 40.9959 0.584473C40.887 0.584473 40.7803 0.61496 40.6878 0.672482C40.5953 0.730005 40.5208 0.812267 40.4727 0.909955L38.8084 4.28162Z" fill="#FE7027"/>
</g>
<g clip-path="url(#clip3_2096_62)">
<path d="M55.8084 4.28162L52.0867 4.82121L52.0208 4.83462C51.921 4.86111 51.8301 4.91361 51.7572 4.98676C51.6843 5.0599 51.6322 5.15107 51.6061 5.25096C51.58 5.35085 51.5809 5.45588 51.6087 5.55531C51.6364 5.65475 51.6901 5.74504 51.7642 5.81695L54.4603 8.44137L53.8245 12.1485L53.8169 12.2126C53.8108 12.3158 53.8322 12.4188 53.879 12.511C53.9258 12.6032 53.9962 12.6813 54.0831 12.7373C54.17 12.7934 54.2702 12.8253 54.3735 12.8299C54.4768 12.8344 54.5794 12.8114 54.6709 12.7633L57.9994 11.0133L61.3203 12.7633L61.3787 12.7901C61.4749 12.828 61.5796 12.8397 61.6818 12.8238C61.7841 12.808 61.8803 12.7652 61.9606 12.6999C62.0409 12.6345 62.1023 12.5491 62.1386 12.4522C62.175 12.3553 62.1849 12.2504 62.1673 12.1485L61.5309 8.44137L64.2282 5.81637L64.2737 5.76679C64.3387 5.68674 64.3813 5.59089 64.3972 5.489C64.4131 5.38712 64.4017 5.28284 64.3642 5.1868C64.3267 5.09075 64.2644 5.00637 64.1836 4.94225C64.1028 4.87813 64.0065 4.83657 63.9045 4.82179L60.1828 4.28162L58.5192 0.909955C58.471 0.812267 58.3965 0.730005 58.304 0.672482C58.2115 0.61496 58.1048 0.584473 57.9959 0.584473C57.887 0.584473 57.7803 0.61496 57.6878 0.672482C57.5953 0.730005 57.5208 0.812267 57.4727 0.909955L55.8084 4.28162Z" fill="#FE7027"/>
</g>
<g clip-path="url(#clip4_2096_62)">
<path d="M72.8084 4.28162L69.0867 4.82121L69.0208 4.83462C68.921 4.86111 68.8301 4.91361 68.7572 4.98676C68.6843 5.0599 68.6322 5.15107 68.6061 5.25096C68.58 5.35085 68.5809 5.45588 68.6087 5.55531C68.6364 5.65475 68.6901 5.74504 68.7642 5.81695L71.4603 8.44137L70.8245 12.1485L70.8169 12.2126C70.8108 12.3158 70.8322 12.4188 70.879 12.511C70.9258 12.6032 70.9962 12.6813 71.0831 12.7373C71.17 12.7934 71.2702 12.8253 71.3735 12.8299C71.4768 12.8344 71.5794 12.8114 71.6709 12.7633L74.9994 11.0133L78.3203 12.7633L78.3787 12.7901C78.4749 12.828 78.5796 12.8397 78.6818 12.8238C78.7841 12.808 78.8803 12.7652 78.9606 12.6999C79.0409 12.6345 79.1023 12.5491 79.1386 12.4522C79.175 12.3553 79.1849 12.2504 79.1673 12.1485L78.5309 8.44137L81.2282 5.81637L81.2737 5.76679C81.3387 5.68674 81.3813 5.59089 81.3972 5.489C81.4131 5.38712 81.4017 5.28284 81.3642 5.1868C81.3267 5.09075 81.2644 5.00637 81.1836 4.94225C81.1028 4.87813 81.0065 4.83657 80.9045 4.82179L77.1828 4.28162L75.5192 0.909955C75.471 0.812267 75.3965 0.730005 75.304 0.672482C75.2115 0.61496 75.1048 0.584473 74.9959 0.584473C74.887 0.584473 74.7803 0.61496 74.6878 0.672482C74.5953 0.730005 74.5208 0.812267 74.4727 0.909955L72.8084 4.28162Z" fill="#FE7027"/>
</g>
<defs>
<clipPath id="clip0_2096_62">
<rect width="14" height="14" fill="white"/>
</clipPath>
<clipPath id="clip1_2096_62">
<rect width="14" height="14" fill="white" transform="translate(17)"/>
</clipPath>
<clipPath id="clip2_2096_62">
<rect width="14" height="14" fill="white" transform="translate(34)"/>
</clipPath>
<clipPath id="clip3_2096_62">
<rect width="14" height="14" fill="white" transform="translate(51)"/>
</clipPath>
<clipPath id="clip4_2096_62">
<rect width="14" height="14" fill="white" transform="translate(68)"/>
</clipPath>
</defs>
</svg>
