<svg width="40" height="40" viewBox="0 0 40 40" fill="none" xmlns="http://www.w3.org/2000/svg">
<g clip-path="url(#clip0_2013_62)">
<circle cx="20" cy="20" r="20" fill="#05D358"/>
<path d="M30.2111 9.92857C29.0132 8.67837 27.5865 7.68713 26.014 7.01265C24.4415 6.33817 22.7548 5.99395 21.0523 6.00008C13.9186 6.00008 8.10452 12.0076 8.10452 19.3785C8.10452 21.741 8.70553 24.036 9.82915 26.061L8 33L14.8593 31.137C16.7538 32.2035 18.8834 32.7705 21.0523 32.7705C28.1859 32.7705 34 26.763 34 19.392C34 15.8146 32.6543 12.4531 30.2111 9.92857ZM21.0523 30.5025C19.1186 30.5025 17.2241 29.9625 15.5648 28.95L15.1729 28.707L11.0965 29.814L12.1809 25.71L11.9196 25.2915C10.8453 23.5189 10.2749 21.47 10.2734 19.3785C10.2734 13.2496 15.1075 8.25457 21.0392 8.25457C23.9136 8.25457 26.6181 9.41557 28.6432 11.5216C29.646 12.5529 30.4406 13.7797 30.9811 15.1307C31.5216 16.4817 31.7972 17.9301 31.792 19.392C31.8181 25.521 26.9839 30.5025 21.0523 30.5025ZM26.9578 22.1865C26.6312 22.0245 25.0372 21.2145 24.7497 21.093C24.4492 20.985 24.2402 20.931 24.0181 21.255C23.796 21.5925 23.1819 22.3485 22.999 22.5645C22.8161 22.794 22.6201 22.821 22.2935 22.6455C21.9668 22.4835 20.9216 22.119 19.6935 20.985C18.7266 20.094 18.0864 19.0005 17.8905 18.663C17.7075 18.3255 17.8643 18.15 18.0342 17.9745C18.1779 17.826 18.3608 17.583 18.5176 17.394C18.6744 17.205 18.7397 17.0565 18.8442 16.8405C18.9487 16.611 18.8965 16.4221 18.8181 16.2601C18.7397 16.0981 18.0864 14.4511 17.8251 13.7761C17.5638 13.1281 17.2894 13.2091 17.0935 13.1956H16.4663C16.2442 13.1956 15.9045 13.2766 15.604 13.6141C15.3166 13.9516 14.4804 14.7616 14.4804 16.4085C14.4804 18.0555 15.6432 19.6485 15.8 19.8645C15.9568 20.094 18.0864 23.469 21.3266 24.9135C22.0975 25.2645 22.6985 25.467 23.1688 25.6155C23.9397 25.872 24.6452 25.8315 25.207 25.7505C25.8342 25.656 27.1276 24.9405 27.3889 24.1575C27.6633 23.3745 27.6633 22.713 27.5719 22.5645C27.4804 22.416 27.2844 22.3485 26.9578 22.1865Z" fill="white"/>
</g>
<defs>
<clipPath id="clip0_2013_62">
<rect width="40" height="40" fill="white"/>
</clipPath>
</defs>
</svg>
